<svg id="Layer_1" data-name="Layer 1" xmlns="http://www.w3.org/2000/svg" viewBox="0 0 501 320"><defs><style>.cls-1{fill:#febe27;}.cls-2{fill:#029243;}.cls-3{fill:#0272cc;}.cls-4{fill:#f51d37;}.cls-5{fill:#fff;}.cls-6{fill:#febe28;}.cls-7{fill:#db1f36;}.cls-8{fill:#009241;}.cls-9{fill:#f6253e;}.cls-10{fill:#dd1f36;}.cls-11{fill:#e21f36;}.cls-12{fill:#e51e36;}.cls-13{fill:#df1f36;}.cls-14{fill:#db2036;}.cls-15{fill:#e31f36;}.cls-16{fill:#de1f36;}.cls-17{fill:#e01f36;}.cls-18{fill:#f61d37;}</style></defs><path class="cls-1" d="M209.75,2.75l8,.25,6,.5L232,4.75l6.75,1.5L246.5,8.5l6.75,2.5L259,13.5l6.5,3.25,6.75,4L277,24l4.25,3.25L284,29.5l2.5,2.25,2,1.75L295,40l1.75,2,2.75,3.25,3.75,5,4,6,3,5L314,68.5l3,7,2.25,6.5L321,88l6.25-.5,3.25-.25h10.25l8.5.75L356,89l7,1.5,6.25,1.75,8,2.75L383,97.5l5.25,2.5,4.5,2.5,5.25,3.25,4.25,3,3,2.25,4,3.25,2.5,2.25,2,1.75,6.5,6.5,2.25,2.75,2.75,3.25,3,4,4,6,2.5,4.25,3.25,6,3.25,7.25,3,8.5L446,173l1.5,6.75,1,5.25,7,2.5,7.25,3.5,5,3,4,3,3.25,2.75,2.5,2.25,3,3,2.25,2.75L486,212l3,4.75,2.75,5.25,2.5,6.25,2,6.75,1.25,6.75L498,246v10l-1,7.75-1.75,7-2,5.5L491,281l-3,5-3,4-3.5,4.25-3.5,3.5-2.5,2L472,302.5l-5.5,3.5-5.25,2.75-6.25,2.5-4.75,1.5-6.5,1.5-5.25.75-7,.5-210,.5-18.5.25-82.75.5H87l-6-.5-7.25-1-6-1.25-5.25-1.5-5.25-1.75-5.75-2.5-4-2-5-2.75-6-4-4.25-3.25-3.5-3-3-2.75L22,286.75,19.75,284,17,280.75l-3.25-4.5-3.75-6-.25-.75h5l2.75,4.25,2.5,3.5L22.25,280,25,283.25l4,4.25,2,1.75,2.75,2.5L38,295l4.25,3,5.5,3.25,5.75,3L60.25,307l7,2.25,6.75,1.5,6.75,1,7,.5h31.5l177.25-1L432.25,311l6.25-.5,6-1,6-1.5,4.5-1.5,5.75-2.5,4.25-2.25,4.5-3,3.25-2.5,2.5-2.25,2-1.75,3-3.25,3.25-4.25,2.5-4,2.25-4.25,2.25-5.75,1.5-5.25,1.25-7,.25-2.75v-9.5l-1-7L491,233l-1.75-5.25-2.75-6-2.5-4.5-2.75-4-2.75-3.5L475,206l-2.5-2.5-2.75-2.25-3.25-2.5-4.75-3-5.75-3-6.25-2.5-5-1.5-.5-.75-1-6.5-1.5-7-2-7-2.25-6.25L435,155.5l-2.25-4.75-2.5-4.5L427,141l-3-4.25-2.5-3.25-3.25-4-3-3.25-6.5-6.5L406,117.5l-3.25-2.75-4.75-3.5-4.25-2.75L390,106.25l-5.5-3-6.5-3-6.5-2.5-6.25-2-7-1.75L351,92.75,344.5,92l-4.5-.25h-9.75l-7.75.75-4.75.5L317,90.75l-1.5-5.5-2.5-7.5-2.75-6.5-4-8L304,59.5l-4.5-6.75L297,49.5l-2.25-2.75-3-3.5-2.75-3L285.75,37l-2-1.75L280,32l-4.25-3.25-4.25-3-4.75-3-6.25-3.5-6.25-3-6.5-2.5L241,11.5l-7-1.75L227.25,8.5l-6-.75L218,7.5H202.5l-7.25.75L188,9.5l-8,2-8.25,2.75-6,2.5-6.25,3-4.5,2.5-5.5,3.5-4.25,3-3.5,2.75-3.25,2.75-3,2.75-1.25,1.25h-.5v.5l-1,1h-.5v.5h-.5l-.5,1L128.5,44,124,49.5l-3,4L118,58l-2.25,3.75-2.25,4-2,4-2.5,5.5-2.75,7.5-1.75,6L103,95l-1.25,7.5-.5,4.25L101,110.5v12.75l.75,7.5.75,5.5-.75.25L98,136l-3.5-.25h-9l-5.75.5-7.5,1.25-7,1.75-6.5,2.25-6.5,2.75L47,147l-5.25,3.25-4.5,3.25-3.5,2.75-3.25,3-3,2.75-1.75,2-2.5,2.5H18l.5-1.25,2.75-3,1.75-2,5.5-5.5,2.75-2.25,3.75-3,5-3.5,5.5-3.25,6.25-3.25,6.75-2.75L63.75,135l6.75-1.75,9-1.5,6.25-.5H94.5l2.75.25-.5-4.75L96.5,123V110l.75-7.75,1-6.25,1.25-6,2-7.25L104,75.5l2.75-6.25,4-8,3.5-5.75L118,50l2.5-3.25L122.75,44l2.75-3.25L129,37l4-4,2-1.75L138.75,28l4-3L147,22l4.75-3L158,15.5l7.25-3.5,7-2.75,8-2.5L187.75,5l7.5-1.25L202.5,3Z"/><path class="cls-2" d="M202.25,18.25h13.5L223,19l7.5,1.25,8,2,6.75,2.25,6.5,2.75L257.5,30l5.25,3,6,4L273,40.25,276.25,43l2.5,2.25.75.5v.5l1,.5,3,3,1.75,2,2.25,2.5,3.25,4.25L294,63l3.75,6.25,3,5.75,2.5,5.75,3,9L308,97l1,6.25,2.5-.25,5.75-1,6.75-.75,4-.25h8.25l6.5.5,7.5,1,7,1.5,6.25,1.75,7,2.5,6.75,3,6.25,3.25,6,3.75,4.5,3.25,3.5,2.75,3.25,3,2,1.75,5,5,1.75,2,3.5,4.25,3.25,4.5,3,4.75,3,5.5,3,6.25,2.5,6.75,2,6.75,1.5,7,1,7.25v3l2.5.25,5.75,1.25,8.25,2.75L454.5,199l4.5,2.75,3.5,2.5,2.75,2.25,2.5,2.25,3.5,3.5L473.5,215l2.5,3.5,2.25,3.75,2,3.75,2.5,6.5,1.5,5.75L485,243l.25,2.75v7l-.5,4.5-1.25,6L481.25,270l-2.5,5.25-3,5-2.5,3.25L471,286l-1.75,2L466,291.25l-2.75,2.25-3.75,2.75L455,299l-4,2-4,1.75L440.25,305l-5.5,1.25-5.25.75-3.5.25H406.75L104.5,305.5l-17.75-.25L79,304.5l-6.5-1.25L67.75,302l-5.25-1.75-6.25-2.75-5.75-3-4-2.5L43,289.5l-3.5-2.75-2.75-2.5-2-1.75L32,279.75l-1.75-2-3.25-4-2.5-3.5-.25-1,5.25.25,2.5,3.25,3.25,3.75L40,281.25l2.75,2.25,3.75,3,3.75,2.5L55,291.75l4,2,5.75,2.5,6.25,2,5.5,1.25,7.25,1,4,.25,17.5.25,303.5,1.75h17L433,302l6.75-1.5,6-2,6-2.75,4.25-2.5,3.5-2.5,2.5-2,2.5-2.25,3.75-3.75,3-4,2.25-3.5,1.75-3,2-4.5,2-6,1-5,.5-4.75v-5.5l-.75-6-1.25-5.25L477,230l-2.25-4.75-2.75-4.5-2.5-3.25-2.75-3.25L463.5,211l-2.75-2.25L457,206l-3.75-2.25L448,201l-5.25-2-6.25-1.75-5.25-1-2.5-.25-.5-.25-.75-8.5L426.25,180l-1.5-6.25L422,165.5l-2.25-5.25-3-6-3-5-2.75-4L408.5,142l-3-3.5-2.25-2.5-2.75-3-5-4.5-3.5-2.75-4.5-3.25-4.25-2.75-5.75-3.25-5.75-2.75-7.75-3L358.25,109,352,107.5l-7.25-1.25-9-.75H327.5l-8.5.75-7,1.25-5.25,1.25h-1.5l-.25-.25-.75-6.5L303,95.5,301,88l-2.25-6.25L296.25,76l-3-5.75-3.5-5.5-2.5-3.5L284.75,58l-2.25-2.5-1.75-2-3-3.25-2-1.75-3.25-3L269,42.75l-4.5-3.25-4.75-3-4.5-2.5-4-2-5-2.25-7-2.5L233,25.5,226,24l-7.25-1-3-.25H202.5l-5.75.5-7.5,1.25-6.5,1.5-5.5,1.75L171,30l-7,3.25L159,36l-4,2.5L150,42l-4,3.25-2.75,2.25-7,7-1.75,2L131.75,60,129,63.75l-3.25,5-2.25,4-2,3.75-3,7.25-2.5,7.5-1.5,6.25-1.25,8-.25,2.75v14l.75,6.25L115,135l1.5,5.75L119,148l2.25,5,.75,1.5v.5l-1.5-.25L115.75,153,111,151.5l-6.5-1.5-4.75-.75-2.5-.25H84.5l-5.75.75L72.5,151l-5.25,1.5-5.25,2-5,2.25-5,2.75L46.75,163l-3,2.25L42,166.5H35.75l1.5-1.75L40,162.5l2.5-2,4.25-3L53,153.75l6.75-3.25L66.5,148l6.5-1.75L80,145l4.75-.5h12.5l6.5.75L112,147l1.75.5-.75-2.75-1.75-6-1.5-6.75-1-7-.25-2.75V108l.75-6.5,1-5.5,1.5-6.5,2.5-7.5L117,75.5l2.5-5,2.5-4.25L124.75,62l3-4.25,2.75-3.25,2.25-2.75,1.75-2h.5l.5-1,3-3,2-1.75,3.75-3.25,3.25-2.5,5-3.5,5-3,4.5-2.5,5.75-2.75,5.75-2.25,6-2,8-2L194.75,19Z"/><path class="cls-3" d="M204.75,31h10.5l7.75.75,6,1,8,2L243.5,37l6.5,2.75L256.25,43,261,46l4.25,3,3.5,2.75,3.5,3,6.5,6.5L281,64l3,3.75,4,6,2.5,4.5,2,3.75,2.75,6.75,2,6,1.5,6.25,1,6,.5,4.25.25,5.75,7.5-2.5,6.75-1.5,6.75-1,6-.5h9l8,.75,6,1,6.25,1.5,5,1.5L366.5,118l6.25,2.75,4.75,2.5,5.25,3.25,5,3.5,4.25,3.5,3.75,3.5,4.25,4.25,2.25,2.75,2.5,3,3.5,5,3,5,3,5.75L417,169.5l2,6.25,1.5,6.5,1,6.75.5,6v7.25l-.25.5h5.75l5.25.75,5,1.25L444,207l5.5,2.75,4.75,3.25,3.25,2.75L460,218l2.5,2.75L465,224l3.25,5.25,2,4.5L472,239l1,5.25.25,1.75v8.25l-.75,5.25L471,265l-2,5-2.25,4-3,4.25-2.25,2.5-1.75,2-2.75,2.5-3.25,2.5-4,2.5-4.75,2.5-4.75,1.75L435,296l-3.75.75-4.5.5-5.25.25-41.25-.25-75.5-.5-81.25-.5-118.75-.75L89,295.25l-7.25-.75-7-1.5-8.25-2.75-7.75-3.75-4.75-3L50.5,281l-3.25-2.75L44.75,276,41,272.25l-1.75-2-.5-1,5.75.25,4,4L54,278l3.75,2.5,3.75,2.25,4,2,4,1.75,6,2,5.25,1.25,5.5.75,3.5.25L105,291l279.75,1.75H426.5l5.75-.75,6.5-1.75,5-2,3.75-2L451,284l3.5-2.75,3-2.75,2.75-3.25,3-4.25,3-6.25,1.5-5,.75-4,.25-2V247l-.75-4.75L467,238l-2-5-2.25-4.25-2.5-3.5L458,222.5l-4-4-4-3-3.75-2.25-4-2-5.25-2-6.25-1.5-3.5-.5L419.5,207h-2l-.5-.25.25-1.5.25-4.5v-5.5l-.75-8-1-5.75L414,174.75l-2.25-6.25-2.25-5-3.25-6.25-3.5-5.25-3-4-3.25-3.75-2.75-3-2-2-2-1.75-3.25-2.75L382,131.5l-5-3.25-5.5-3L366.75,123l-6-2.25-6.5-2-7-1.5-7.5-1-3-.25h-9.5l-7.5.75-5.75,1-7,1.75-8,2.75-2.5,1H296v-8l-.5-6.25-1.25-7.5-1.5-6-2-6-2.5-5.75L285,77.5l-3-4.75L278.5,68l-3-3.5L272,60.75l-2.5-2.5-2-1.75-4-3.25L258.75,50,254,47l-6.75-3.5-4.75-2-9-3L227,37l-6.25-1-6-.5H205l-7.75.75-7.75,1.5-6.25,1.75-5.75,2-6.75,3L166,47l-4.75,3-3.5,2.5-3.5,2.75L150.5,58.5l-6,6L141.75,68l-2.5,3.25L136.75,75,134,79.75l-2,3.75-1.75,4-2.25,6-1.5,5.25L125,106.5l-.75,7.25v8.75l.5,5.5,1,6,1.5,6,2.5,7.5,2.75,6,2.5,4.75,3,4.75,2,2.75v.75h-5l-2-2.75L130.75,160l-3-5.75-2.5-5.75L123,141.75l-1.75-7L120,126.5l-.25-4v-8.75l.75-7.75,1-5.75,1.5-6,2-5.75,2.5-6,2.5-5,2.5-4.25L135,69.5l3-4,2.25-2.75,2.75-3,6.25-6.25L152,51.25,156.25,48,160,45.5l3.25-2,4.5-2.5,5.75-2.75,7.25-2.75,7-2L195.5,32l6-.75Z"/><path class="cls-4" d="M204.25,43H214l7.25.75L227.5,45l5.5,1.5,5.75,2,6,2.75,3.75,2,4.75,3,3.5,2.5L259.5,61l3.5,3,4,4,2.25,2.75,2.5,3,3.5,5.25L278,83.75,280.5,89l2.5,6.75,2,8,1,7.25.25,3.25V120l-.5,5.75-1,6.25-1.25,5.25,3-1.75,3.75-2.25,4-2,4.25-2,4.5-1.75,7-2,7.75-1.5,7.25-.75h9.75L342,124l5.5,1,6,1.5,6,2,6.25,2.75L371,134l5.5,3.5,4,3,2.75,2.25,3.25,3,4,4,2.25,2.75,2.75,3.5,3,4.5,3,5.25,2.75,5.75,2.25,6.25,1.75,6.5,1,5.5.5,5.25v11l-.75,6.5-.25,1,2.75-.75,6-.75h5.75l4.5.5,5.25,1.25,3.75,1.25,4.75,2.25,4,2.5,4,3.25,3,3,2.5,3.25,2.5,4,2,4.5,1.25,3.75.75,3.5.25,2.25v7l-.75,4.5-1.25,4-1.25,3-2.25,3.75L454,272.25l-1.75,2h-.5v.5l-3.5,2.75-4.5,2.75L440,282l-5.25,1.75-4.5,1-6.75.75h-19l-31.75-.25L350.5,285l-41.5-.25-63.25-.5-127-1-21-.25-10-.25-5.5-.75-4.5-1L73,279.5l-4.75-2L63,274.75l-3-2-4-3v-.25h7.25L67,271.75l4,2,5,2,5.25,1.5,4.25.75,6,.5L404.25,281h19.5l5.75-.75,4.5-1,5-1.75,4.75-2.5,3.5-2.5,3.25-3,2.75-3.75,2-3.75,1.25-4,.75-4v-6.5l-1-5-1.25-4-2-4-2.5-3.75-3-3.25-2.25-2.25-3.5-2.5-3.5-2-4.5-2-5.25-1.5-5.5-.75h-5.75l-5.25.75-5.25,1.5-3.5,1.5h-.5l.5-2.5,1.5-7.75.5-4.5V195.25L404.5,189l-1.25-6-1.5-5.25-2.75-7L396,165l-3-4.75-2.25-3-2.25-2.75-2.25-2.5-1.75-2-1.75-1.75L380,146l-2.25-2-4.5-3.25-3.25-2-4-2.25-6.25-3-6.25-2.25-5.5-1.5-4.75-1-5.5-.75-3.25-.25H325l-5.25.5-7,1.25-6.5,1.75-5.5,2-6,2.75-4.5,2.5-2.75,1.75-3.25,2.25L281,145l-3,2.75-2,1.75-3.75,4-1,1.5-.75.25L271,154l2.75-4.75,2.75-5.75,1.75-4.75L280,132.5l1-5.25.5-4,.25-3.75v-4.75l-.5-5.75-1-5.75-1.5-5.75-1.5-4.5-2.75-6.25-2.5-4.5-3-4.5-2.5-3.25-3-3.5-5.25-5.25L255.5,63.5l-4-3-4.75-3L240,54l-7-2.75-6.25-1.75-6-1.25-3.75-.5-3.25-.25H203.5l-7.75,1L189,50l-7.5,2.5-6,2.75-4.25,2.25-4,2.5L162,64l-5,4.5L154.5,71l-1.75,2L150,76.5l-2.25,3.25L145,84.25l-3,6-2,5.25-1.5,5-1.25,6-.75,5.5v10.5l1,7.25L139,136l2,6,2.25,5,2.5,4.75,3.5,5.25,2.25,3,3,3.5,2.25,2.25.25.75h-6l-3.25-3.75-3.25-4.5L141.25,153l-2.5-4.75L136,141.5l-1.75-5.75-1.5-6.75-.75-6.25v-10.5l.75-6.5,1.25-6,1.75-6,2.5-6.25,2-4,2.25-4,3.75-5.5L149,70.5l3-3.25L157.25,62l3.5-2.75,3-2.25L168,54.25l4.5-2.5,4-2,6.25-2.5,6.75-2,6-1.25,5.5-.75Z"/><path class="cls-5" d="M167,175h10l5,.75,5,1.5,4.25,2,1.25.75-.25,1.75-3.5,7.5-2,4.5-.75.5-2.25-1.5-4.5-1.75-2.75-.5h-8l-3.75,1-3.5,1.75L159,195l-2,2-2,3.25L153.5,204l-1,4.25-.75,4,3.5-2.5,3.5-2,3.75-1.25,3-.5H174l3.75.75L181,208l3.75,2,2.5,2,2.75,2.75,2.25,3.5,1.25,2.5,1.25,3.75.75,5.25v3l-.5,5-1.25,4.5-2,4L190,249l-3,3.25L183.25,255l-4.75,2.25-3.25,1-2.5.5-2.5.25h-6.5l-5.25-.75-4-1.25-4-2-2.75-1.75-3.25-3-2.25-2.5-2.25-3.5-2-4L136.25,235,135,229l-.5-4.75v-11l.75-6.25,1.25-5.25,1.5-4.5,2-4.25,2.5-4,2.25-2.75L149,182l4.25-2.75,3.5-1.75,3.75-1.25,4.5-1Zm-3.75,45.25-3,1-2.75,2-1.75,2-1.5,3-.5,2.25V235l1,3,1.5,2.5,1.75,1.75,2.5,1.5,3.25,1H169l2.5-.75,2.75-1.5,1.25-1,1.75-2.5,1-2.5.5-3-.25-3.75-1-3.25-1.5-2.25L173.75,222l-3.25-1.5-1.25-.25Z"/><path class="cls-5" d="M224,175h8.25l4,.75,4,1.5,4,2.25,2.75,2.25,3.5,3.5,2.75,4,2.25,4.25,2,5.5,1.25,5.25.75,5.75.25,3.25V221l-.75,7.25L257.75,234,256,239.25l-2,4-1.75,3-2.5,3.25-3,3-3,2.25-3.75,2-4.5,1.5-2.25.5L231,259h-6l-4.75-.75-3-1-4-2L210,253l-3-2.75-2.75-3.5L202,243l-2-4.25-1.75-5.25L197,227.25l-.5-5.25V211.25l.75-6.25,1.25-5.5,1.5-4.25,3-6.25,2-2.75,2.25-2.75,1.75-1.75,3.25-2.5,3.5-2L219,176Zm1.5,16.25-2.5,1-2.25,1.5-2,2-2,3.5-1.5,4-1,5.25-.25,2.25V223l.75,5.25,1,4.25,2,4.25L219.5,239l2.25,2,3,1.5,1,.25h4.75l3-1.25,2.25-1.5,2.25-2.5,1.5-2.5,1.5-4.5.75-3.5.5-4.25V211l-.75-5.25-1-4.25-1.25-3-2-3-2.5-2.5-3.25-1.5-1-.25Z"/><path class="cls-5" d="M77,176h51.5l.25.25V188l-2,2.75-2.5,3.25L121,198l-3.25,4.25-5,6.25-.25.5,4,1,4,1.75,2.75,1.75,2.5,2.25,2,2.25,2,3.5,1.25,3,.75,3.75.25,1.5v5.75l-1,5-1.5,4-2.25,3.75-2.25,2.5-2.75,2.5-3.25,2-3.25,1.5-5,1.5-3,.5L105,259H97.5l-4.75-.5-5.5-1.25L82,255.5l-4.75-2.25-3.75-2.5-.25-1L78,239.5l1.5-3.75,1.25.25L85,238.75,90.25,241l5.25,1.25,1.75.25h7l4-1,3-1.75,2-2.25,1-2.75.25-2.75-.5-2.75-1.25-2.5L111,225l-2.5-1.25-3-.75-3-.25-9.25-.25-.25-.25V210l2.75-3.5,2-2.5,2.75-3.5,2-2.5,3.5-4.5,1.5-2,.25-.5H77.25l-.25-.25Z"/><path class="cls-6" d="M4.25,175.5h14l.25.25V200l3.5-1.5,4.25-1h7.5l4.25,1,4.75,2.25,3.5,2.5,1.75,1.5,1-.25,2.75-2.5,4-2.5,3-1.25,3-.75,1.75-.25h3.25V211l-2,.75-2.5.75-2.75,1.75L57.75,216,56,219.5l-.25,1L55.5,229v29l-.25.25-9.5.25h-4l-.25-.25L41.25,222l-.5-2.25-2-4-2-2.25-3.25-1.75-2-.5H27l-2.75,1-2,1.5-1.5,1.75-1.5,3.25-.5,2.5L18.5,258l-.25.25h-14L4,249.75V227Z"/><path class="cls-7" d="M48,205.5l1,.25.75.75v.5h.5l2.5,4,1.75,4,.75,3.75.25,1.75V258l-.25.25-9.5.25h-4l-.25-.25-.25-37,.5-4.5L43,212.5l2-3.75,2-2.5h.5v-.5Z"/><path class="cls-3" d="M87.75,155h11l6.25.75,5.75,1.25,5,1.5,5.25,2,5.75,2.75,3.75,2.25.75,1H123l-4.75-2.25L110,161.5l-5.5-1.25-5.75-.75H87.5l-5.75.75-6.5,1.5-6,2-6.5,2.75H55l1.25-1.25L60,163l7-3.25,7.5-2.5L80,156l4.75-.75Z"/><path class="cls-8" d="M46.75,183.75H49.5l2.75,1,1.25,1,1.5,2.5.25.75v3.75L54,195.25,52,197l-2,.75H46.5l-2.5-1-1.75-2-1-2.5v-3l1-2.5,2-2Z"/><path class="cls-9" d="M41.75,216.75H42v37.5l.25-8.5.5,1,.25,4,.5,2.25.5,1v.75h.5l.25,1.25,2.25.25.75.75,2.5.5.25-.5.75.25v-.5h1v.5l2.25.25.5.25v-37l.5-.25V258l-.25.25-9.5.25h-4l-.25-.25-.25-37Z"/><path class="cls-10" d="M397.75,160.5h.75l3,5.25,2.75,5.75,2.25,6.25,1.75,6.5v2.25l-.5-.5-.25-1.75L406.25,183v-.75l-.5-1.75-.5-.5-.5-2.25-.25-1.25H404v-1.75h-.5l-.5-1.25-.25-1.5h-.5l.25-.75-.75-.75V170h-.5l.25-.75L400.25,168l.25-.75-1-1-.25-.75h.5V165h-.5v-.75l-1-.5.5-.25v-.75h-.5l-.5-1.25.5-.75Z"/><path class="cls-10" d="M273.75,77.25,275,78.5l3,5.25L280.5,89l2.5,6.75,1.25,4.75-.25,1-.5-1.25L282.25,99l.25-.75-.5-1,.25-.5h-.5v-.5L281,96l.25-1-.5-.5-.5-1.25-.5-1.5-.75-1.5L278.75,89l-.5-.5.25-.25L278,88v-.5h-.5l-.25-1V86l-1-1.5h.5V84h-.5v-.5h-.5l-.5-1h.5l-.5-.5L275,79.75,274,79Z"/><path class="cls-10" d="M137.5,132.5l.75.75,1.75,6,2.5,6.25,3.25,6.25,1.25,2v.5h-.5v-.5l-.75-.25V153l-.75-.25-.75-1.5-1-.5v-1.5l-.5-.25.25-.5h-.75l-.5-.75V147h-.5l-1.5-2.75L140,143l-.75-.25-.5-2.25.25-.5h-.5v-.75H138V137.5l-.5-.25-.5-1.5v-1.5Z"/><path class="cls-11" d="M374.25,281h30l5.5.25v.25l-3.25.25h-32Z"/><path class="cls-12" d="M247,280h29.5l6.25.25v.25l-8.75.25H259.25l-1,.25v-.5l-4,.25h-7Z"/><path class="cls-13" d="M285.75,115.5H286v8.25L285,131l-.75,1.75-.75-.5.5-2.5.25-3v-1.5l.25-3.25.75-3,.25-1.25Z"/><path class="cls-10" d="M457.5,234l.75.75,2,5,1,4v2.5h-.5l-1-2.75-.25-.25v-1.5L459,241l-.25-2.5h-.5l-.5-2.25L457,234.5Z"/><path class="cls-10" d="M144.5,156l1.25.75v1.5l.25.5.75.25v.75L148,160l-.5,1.75H147l-3-4.25v-1h.5Z"/><path class="cls-14" d="M405.75,195l.5.5v10l.25,1.25-1.25.5V205.5l.25-.75Z"/><path class="cls-10" d="M409.25,205.25h.25v3l-.5,1.5h-.75l-.25-1.5.75-2.75Z"/><path class="cls-15" d="M457.5,247.5l.75.75V254l-.75.25Z"/><path class="cls-10" d="M135.75,121.25h.5l.25,1.25v3.75l-1-.5-.25-1.25.25-.75Z"/><path class="cls-16" d="M136.75,128.5l.5.5.5,2v1.25L136.5,132l-.25-2.75v-.5Z"/><path class="cls-17" d="M283.75,133.25l.5.25-.25,2-.25.75h-.5v-.5l-.5-.25.5-1.75Z"/><path class="cls-18" d="M48,205.5l1,.25.75.75v.5h.5l.5,1.25-.75.25-.75-1.5-.75-.5V206l-1,.25v-.5Z"/><path class="cls-13" d="M281.75,122H282l.5,3.75-1,.5v-3Z"/><path class="cls-10" d="M405.75,204.75l.75,1-.25,1.25-1,.25V205.5Z"/><path class="cls-11" d="M136,110.25h.5V112l-.75,1-.25-2.25Z"/></svg>