<?xml version="1.0" encoding="utf-8"?>
<!-- Generator: Adobe Illustrator 24.1.2, SVG Export Plug-In . SVG Version: 6.00 Build 0)  -->
<svg version="1.1" id="Layer_1" xmlns="http://www.w3.org/2000/svg" xmlns:xlink="http://www.w3.org/1999/xlink" x="0px" y="0px"
	 viewBox="0 0 494 314" style="enable-background:new 0 0 494 314;" xml:space="preserve">
<style type="text/css">
	.st0{fill:#FEBE27;}
	.st1{fill:#029243;}
	.st2{fill:#0272CC;}
	.st3{fill:#F51D37;}
	.st4{fill:#FFFDFF;}
	.st5{fill:#FFFFFF;}
	.st6{fill:#FEBE28;}
	.st7{fill:#DB1F36;}
	.st8{fill:#009241;}
	.st9{fill:#F6253E;}
	.st10{fill:#DD1F36;}
	.st11{fill:#E21F36;}
	.st12{fill:#E51E36;}
	.st13{fill:#DF1F36;}
	.st14{fill:#DB2036;}
	.st15{fill:#E31F36;}
	.st16{fill:#DE1F36;}
	.st17{fill:#E01F36;}
	.st18{fill:#F61D37;}
</style>
<g id="Layer_2_1_">
	<g id="Layer_1-2">
		<path class="st0" d="M205.8,0l8,0.3l6,0.5L228,2l6.8,1.5l7.8,2.3l6.8,2.5l5.8,2.5l6.5,3.3l6.8,4l4.8,3.3l4.3,3.3l2.8,2.3l2.5,2.3
			l2,1.8l6.5,6.5l1.8,2l2.8,3.3l3.8,5l4,6l3,5l3.8,7.3l3,7l2.3,6.5l1.8,6l6.3-0.5l3.3-0.3h10.3l8.5,0.8l6.8,1l7,1.5l6.3,1.8l8,2.8
			l5.8,2.5l5.3,2.5l4.5,2.5l5.3,3.3l4.3,3l3,2.3l4,3.3l2.5,2.3l2,1.8l6.5,6.5l2.3,2.8l2.8,3.3l3,4l4,6l2.5,4.3l3.3,6l3.3,7.3l3,8.5
			l1.8,6.3l1.5,6.8l1,5.3l7,2.5l7.3,3.5l5,3l4,3l3.3,2.8l2.5,2.3l3,3l2.3,2.8l3.3,4.3l3,4.8l2.8,5.3l2.5,6.3l2,6.8l1.3,6.8l0.5,4.3
			v10l-1,7.8l-1.8,7l-2,5.5l-2.3,4.8l-3,5l-3,4l-3.5,4.3L474,295l-2.5,2l-3.5,2.8l-5.5,3.5l-5.3,2.8l-6.3,2.5l-4.8,1.5l-6.5,1.5
			l-5.3,0.8l-7,0.5l-210,0.5l-18.5,0.3l-82.8,0.5H83l-6-0.5l-7.3-1l-6-1.3l-5.3-1.5l-5.3-1.8l-5.8-2.5l-4-2l-5-2.8l-6-4l-4.3-3.3
			l-3.5-3l-3-2.8L18,284l-2.3-2.8L13,278l-3.3-4.5l-3.8-6l-0.3-0.8h5l2.8,4.3l2.5,3.5l2.3,2.8l2.8,3.3l4,4.3l2,1.8l2.8,2.5l4.3,3.3
			l4.3,3l5.5,3.3l5.8,3l6.8,2.8l7,2.3L70,308l6.8,1l7,0.5h31.5l177.3-1l135.8-0.3l6.3-0.5l6-1l6-1.5l4.5-1.5l5.8-2.5l4.3-2.3l4.5-3
			l3.3-2.5l2.5-2.3l2-1.8l3-3.3l3.3-4.3l2.5-4l2.3-4.3l2.3-5.8l1.5-5.3l1.3-7l0.3-2.8v-9.5l-1-7l-1.5-6.3l-1.8-5.3l-2.8-6l-2.5-4.5
			l-2.8-4l-2.8-3.5l-3.5-3.8l-2.5-2.5l-2.8-2.3l-3.3-2.5l-4.8-3l-5.8-3l-6.3-2.5l-5-1.5l-0.5-0.8l-1-6.5l-1.5-7l-2-7l-2.3-6.3
			l-2.5-5.8l-2.3-4.8l-2.5-4.5l-3.3-5.3l-3-4.3l-2.5-3.3l-3.3-4l-3-3.3l-6.5-6.5l-2.8-2.3l-3.3-2.8l-4.8-3.5l-4.3-2.8l-3.8-2.3
			l-5.5-3l-6.5-3l-6.5-2.5l-6.3-2l-7-1.8L347,90l-6.5-0.8L336,89h-9.8l-7.8,0.8l-4.8,0.5L313,88l-1.5-5.5L309,75l-2.8-6.5l-4-8
			l-2.3-3.8l-4.5-6.8l-2.5-3.3l-2.3-2.8l-3-3.5l-2.8-3l-3.3-3.3l-2-1.8l-3.8-3.3l-4.3-3.3l-4.3-3l-4.8-3l-6.3-3.5l-6.3-3l-6.5-2.5
			L237,8.8L230,7l-6.8-1.3l-6-0.8L214,4.8h-15.5l-7.3,0.8L184,6.8l-8,2l-8.3,2.8l-6,2.5l-6.3,3l-4.5,2.5l-5.5,3.5l-4.3,3l-3.5,2.8
			l-3.3,2.8l-3,2.8l-1.3,1.3h-0.5V36l-1,1h-0.5v0.5h-0.5l-0.5,1l-2.8,2.8l-4.5,5.5l-3,4l-3,4.5l-2.3,3.8l-2.3,4l-2,4l-2.5,5.5
			l-2.8,7.5l-1.8,6L99,92.3l-1.3,7.5l-0.5,4.3l-0.3,3.8v12.8l0.8,7.5l0.8,5.5l-0.8,0.3l-3.8-0.5l-3.5-0.3h-9l-5.8,0.5l-7.5,1.3
			l-7,1.8l-6.5,2.3l-6.5,2.8l-5.3,2.8l-5.3,3.3l-4.5,3.3l-3.5,2.8l-3.3,3l-3,2.8l-1.8,2l-2.5,2.5H14l0.5-1.3l2.8-3l1.8-2l5.5-5.5
			l2.8-2.3l3.8-3l5-3.5l5.5-3.3l6.3-3.3l6.8-2.8l5.3-1.8l6.8-1.8l9-1.5l6.3-0.5h8.8l2.8,0.3l-0.5-4.8l-0.3-3.8v-13l0.8-7.8l1-6.3
			l1.3-6l2-7.3l2.5-7.3l2.8-6.3l4-8l3.5-5.8l3.8-5.5l2.5-3.3l2.3-2.8l2.8-3.3l3.5-3.8l4-4l2-1.8l3.8-3.3l4-3l4.3-3l4.8-3l6.3-3.5
			l7.3-3.5l7-2.8l8-2.5l7.5-1.8l7.5-1.3l7.3-0.8L205.8,0z"/>
		<path class="st1" d="M198.3,15.5h13.5l7.3,0.8l7.5,1.3l8,2l6.8,2.3l6.5,2.8l5.8,2.8l5.3,3l6,4l4.3,3.3l3.3,2.8l2.5,2.3l0.8,0.5
			v0.5l1,0.5l3,3l1.8,2l2.3,2.5l3.3,4.3l3.3,4.5l3.8,6.3l3,5.8l2.5,5.8l3,9l1.8,7.3l1,6.3l2.5-0.3l5.8-1l6.8-0.8l4-0.3h8.3l6.5,0.5
			l7.5,1l7,1.5l6.3,1.8l7,2.5l6.8,3l6.3,3.3l6,3.8l4.5,3.3l3.5,2.8l3.3,3l2,1.8l5,5l1.8,2l3.5,4.3l3.3,4.5l3,4.8l3,5.5l3,6.3
			l2.5,6.8l2,6.8l1.5,7l1,7.3v3l2.5,0.3l5.8,1.3l8.3,2.8l5.8,2.8l4.5,2.8l3.5,2.5l2.8,2.3l2.5,2.3l3.5,3.5l2.3,2.8l2.5,3.5l2.3,3.8
			l2,3.8l2.5,6.5l1.5,5.8l0.8,4.8l0.3,2.8v7l-0.5,4.5l-1.3,6l-2.3,6.8l-2.5,5.3l-3,5l-2.5,3.3l-2.3,2.5l-1.8,2l-3.3,3.3l-2.8,2.3
			l-3.8,2.8l-4.5,2.8l-4,2l-4,1.8l-6.8,2.3l-5.5,1.3l-5.3,0.8l-3.5,0.3h-19.3l-302.3-1.8l-17.8-0.3l-7.8-0.8l-6.5-1.3l-4.8-1.3
			l-5.3-1.8l-6.3-2.8l-5.8-3l-4-2.5l-3.5-2.5l-3.5-2.8l-2.8-2.5l-2-1.8L28,277l-1.8-2l-3.3-4l-2.5-3.5l-0.3-1l5.3,0.3L28,270
			l3.3,3.8l4.8,4.8l2.8,2.3l3.8,3l3.8,2.5L51,289l4,2l5.8,2.5l6.3,2l5.5,1.3l7.3,1l4,0.3l17.5,0.3l303.5,1.8h17l7.3-0.8l6.8-1.5l6-2
			l6-2.8l4.3-2.5l3.5-2.5l2.5-2l2.5-2.3l3.8-3.8l3-4l2.3-3.5l1.8-3l2-4.5l2-6l1-5l0.5-4.8v-5.5l-0.8-6l-1.3-5.3l-1.8-5.3l-2.3-4.8
			L468,218l-2.5-3.3l-2.8-3.3l-3.3-3.3l-2.8-2.3l-3.8-2.8l-3.8-2.3l-5.3-2.8l-5.3-2l-6.3-1.8l-5.3-1l-2.5-0.3l-0.5-0.3l-0.8-8.5
			l-1.3-7.3l-1.5-6.3l-2.8-8.3l-2.3-5.3l-3-6l-3-5l-2.8-4l-2.5-3.3l-3-3.5l-2.3-2.5l-2.8-3l-5-4.5L388,123l-4.5-3.3l-4.3-2.8
			l-5.8-3.3l-5.8-2.8l-7.8-3l-5.8-1.8l-6.3-1.5l-7.3-1.3l-9-0.8h-8.3l-8.5,0.8l-7,1.3l-5.3,1.3h-1.5l-0.3-0.3l-0.8-6.5l-1.3-6.5
			l-2-7.5l-2.3-6.3l-2.5-5.8l-3-5.8l-3.5-5.5l-2.5-3.5l-2.5-3.3l-2.3-2.5l-1.8-2l-3-3.3l-2-1.8l-3.3-3L265,40l-4.5-3.3l-4.8-3
			l-4.5-2.5l-4-2l-5-2.3l-7-2.5l-6.3-1.8l-7-1.5l-7.3-1l-3-0.3h-13.3l-5.8,0.5l-7.5,1.3l-6.5,1.5l-5.5,1.8l-6.3,2.3l-7,3.3l-5,2.8
			l-4,2.5l-5,3.5l-4,3.3l-2.8,2.3l-7,7l-1.8,2l-2.8,3.5L125,61l-3.3,5l-2.3,4l-2,3.8l-3,7.3l-2.5,7.5l-1.5,6.3l-1.3,8l-0.3,2.8v14
			l0.8,6.3l1.3,6.5l1.5,5.8l2.5,7.3l2.3,5l0.8,1.5v0.5l-1.5-0.3l-4.8-1.8l-4.8-1.5l-6.5-1.5l-4.8-0.8l-2.5-0.3H80.5l-5.8,0.8
			l-6.3,1.3l-5.3,1.5l-5.3,2l-5,2.3l-5,2.8l-5.3,3.5l-3,2.3l-1.8,1.3h-6.3l1.5-1.8l2.8-2.3l2.5-2l4.3-3L49,151l6.8-3.3l6.8-2.5
			l6.5-1.8l7-1.3l4.8-0.5h12.5l6.5,0.8l8.3,1.8l1.8,0.5L109,142l-1.8-6l-1.5-6.8l-1-7l-0.3-2.8v-14.3l0.8-6.5l1-5.5l1.5-6.5l2.5-7.5
			l2.8-6.5l2.5-5l2.5-4.3l2.8-4.3l3-4.3l2.8-3.3l2.3-2.8l1.8-2h0.5l0.5-1l3-3l2-1.8l3.8-3.3l3.3-2.5l5-3.5l5-3l4.5-2.5l5.8-2.8
			l5.8-2.3l6-2l8-2l7.3-1.3L198.3,15.5z"/>
		<path class="st2" d="M200.8,28.3h10.5L219,29l6,1l8,2l6.5,2.3L246,37l6.3,3.3l4.8,3l4.3,3l3.5,2.8l3.5,3l6.5,6.5l2.3,2.8l3,3.8
			l4,6l2.5,4.5l2,3.8l2.8,6.8l2,6l1.5,6.3l1,6l0.5,4.3l0.3,5.8l7.5-2.5l6.8-1.5l6.8-1l6-0.5h9l8,0.8l6,1l6.3,1.5l5,1.5l4.8,1.8
			l6.3,2.8l4.8,2.5l5.3,3.3l5,3.5l4.3,3.5l3.8,3.5l4.3,4.3l2.3,2.8l2.5,3l3.5,5l3,5l3,5.8l2.8,6.8l2,6.3l1.5,6.5l1,6.8l0.5,6v7.3
			l-0.3,0.5h5.8l5.3,0.8l5,1.3l6.3,2.3l5.5,2.8l4.8,3.3l3.3,2.8l2.5,2.3l2.5,2.8l2.5,3.3l3.3,5.3l2,4.5l1.8,5.3l1,5.3l0.3,1.8v8.3
			l-0.8,5.3l-1.5,5.5l-2,5l-2.3,4l-3,4.3l-2.3,2.5l-1.8,2l-2.8,2.5l-3.3,2.5l-4,2.5L441,290l-4.8,1.8l-5.3,1.5l-3.8,0.8l-4.5,0.5
			l-5.3,0.3l-41.3-0.3l-75.5-0.5l-81.3-0.5l-118.8-0.8L85,292.5l-7.3-0.8l-7-1.5l-8.3-2.8l-7.8-3.8l-4.8-3l-3.5-2.5l-3.3-2.8
			l-2.5-2.3l-3.8-3.8l-1.8-2l-0.5-1l5.8,0.3l4,4l5.5,4.5l3.8,2.5l3.8,2.3l4,2l4,1.8l6,2l5.3,1.3l5.5,0.8l3.5,0.3l15.3,0.3l279.8,1.8
			h41.8l5.8-0.8l6.5-1.8l5-2l3.8-2l3.5-2.3l3.5-2.8l3-2.8l2.8-3.3l3-4.3l3-6.3l1.5-5l0.8-4l0.3-2v-6.8l-0.8-4.8l-1-4.3l-2-5
			l-2.3-4.3l-2.5-3.5l-2.3-2.8l-4-4l-4-3l-3.8-2.3l-4-2l-5.3-2l-6.3-1.5l-3.5-0.5l-7.8-0.3h-2L413,204l0.3-1.5l0.3-4.5v-5.5l-0.8-8
			l-1-5.8L410,172l-2.3-6.3l-2.3-5l-3.3-6.3l-3.5-5.3l-3-4l-3.3-3.8l-2.8-3l-2-2l-2-1.8l-3.3-2.8l-4.5-3.3l-5-3.3l-5.5-3l-4.8-2.3
			l-6-2.3l-6.5-2l-7-1.5l-7.5-1l-3-0.3h-9.5l-7.5,0.8l-5.8,1l-7,1.8l-8,2.8l-2.5,1H292v-8l-0.5-6.3l-1.3-7.5l-1.5-6l-2-6l-2.5-5.8
			l-3.3-6.3l-3-4.8l-3.5-4.8l-3-3.5L268,58l-2.5-2.5l-2-1.8l-4-3.3l-4.8-3.3l-4.8-3l-6.8-3.5l-4.8-2l-9-3l-6.5-1.5l-6.3-1l-6-0.5
			H201l-7.8,0.8l-7.8,1.5l-6.3,1.8l-5.8,2l-6.8,3l-4.8,2.5l-4.8,3l-3.5,2.5l-3.5,2.8l-3.8,3.3l-6,6l-2.8,3.5l-2.5,3.3l-2.5,3.8
			L130,77l-2,3.8l-1.8,4l-2.3,6l-1.5,5.3l-1.5,7.8l-0.8,7.3v8.8l0.5,5.5l1,6l1.5,6l2.5,7.5l2.8,6l2.5,4.8l3,4.8l2,2.8v0.8h-5l-2-2.8
			l-2.3-3.8l-3-5.8l-2.5-5.8L119,139l-1.8-7l-1.3-8.3l-0.3-4V111l0.8-7.8l1-5.8l1.5-6l2-5.8l2.5-6l2.5-5l2.5-4.3l2.5-3.8l3-4
			l2.3-2.8l2.8-3l6.3-6.3l2.8-2.3l4.3-3.3l3.8-2.5l3.3-2l4.5-2.5l5.8-2.8l7.3-2.8l7-2l7.8-1.5l6-0.8L200.8,28.3z"/>
		<path class="st3" d="M200.3,40.3h9.8l7.3,0.8l6.3,1.3l5.5,1.5l5.8,2l6,2.8l3.8,2l4.8,3l3.5,2.5l2.8,2.3l3.5,3l4,4l2.3,2.8l2.5,3
			l3.5,5.3L274,81l2.5,5.3L279,93l2,8l1,7.3l0.3,3.3v5.8l-0.5,5.8l-1,6.3l-1.3,5.3l3-1.8l3.8-2.3l4-2l4.3-2l4.5-1.8l7-2l7.8-1.5
			l7.3-0.8h9.8l7.3,0.8l5.5,1l6,1.5l6,2l6.3,2.8l5.3,2.8l5.5,3.5l4,3l2.8,2.3l3.3,3l4,4l2.3,2.8l2.8,3.5l3,4.5l3,5.3l2.8,5.8
			l2.3,6.3l1.8,6.5l1,5.5l0.5,5.3v11l-0.8,6.5l-0.3,1l2.8-0.8l6-0.8h5.8l4.5,0.5l5.3,1.3l3.8,1.3l4.8,2.3l4,2.5l4,3.3l3,3l2.5,3.3
			l2.5,4l2,4.5l1.3,3.8l0.8,3.5l0.3,2.3v7L457,256l-1.3,4l-1.3,3l-2.3,3.8l-2.3,2.8l-1.8,2h-0.5v0.5l-3.5,2.8l-4.5,2.8l-3.8,1.8
			l-5.3,1.8l-4.5,1l-6.8,0.8h-19l-31.8-0.3l-22.3-0.3L305,282l-63.3-0.5l-127-1l-21-0.3l-10-0.3l-5.5-0.8l-4.5-1l-4.8-1.5l-4.8-2
			L59,272l-3-2l-4-3v-0.3h7.3L63,269l4,2l5,2l5.3,1.5l4.3,0.8l6,0.5l312.8,2.5h19.5l5.8-0.8l4.5-1l5-1.8l4.8-2.5l3.5-2.5l3.3-3
			l2.8-3.8l2-3.8l1.3-4l0.8-4v-6.5l-1-5l-1.3-4l-2-4l-2.5-3.8l-3-3.3l-2.3-2.3l-3.5-2.5l-3.5-2l-4.5-2l-5.3-1.5l-5.5-0.8h-5.8
			l-5.3,0.8l-5.3,1.5l-3.5,1.5h-0.5l0.5-2.5l1.5-7.8l0.5-4.5v-10.3l-0.8-6.3l-1.3-6l-1.5-5.3l-2.8-7l-3-5.8l-3-4.8l-2.3-3l-2.3-2.8
			l-2.3-2.5l-1.8-2l-1.8-1.8l-2.8-2.3l-2.3-2l-4.5-3.3l-3.3-2l-4-2.3l-6.3-3l-6.3-2.3L344,127l-4.8-1l-5.5-0.8l-3.3-0.3H321
			l-5.3,0.5l-7,1.3l-6.5,1.8l-5.5,2l-6,2.8l-4.5,2.5l-2.8,1.8l-3.3,2.3l-3.3,2.5l-3,2.8l-2,1.8l-3.8,4l-1,1.5l-0.8,0.3l0.5-1.3
			l2.8-4.8l2.8-5.8l1.8-4.8l1.8-6.3l1-5.3l0.5-4l0.3-3.8V112l-0.5-5.8l-1-5.8l-1.5-5.8l-1.5-4.5l-2.8-6.3l-2.5-4.5l-3-4.5l-2.5-3.3
			l-3-3.5l-5.3-5.3l-2.8-2.3l-4-3l-4.8-3l-6.8-3.5l-7-2.8l-6.3-1.8l-6-1.3L213,45l-3.3-0.3h-10.3l-7.8,1l-6.8,1.5l-7.5,2.5l-6,2.8
			l-4.3,2.3l-4,2.5l-5.3,4l-5,4.5l-2.5,2.5l-1.8,2l-2.8,3.5l-2.3,3.3l-2.8,4.5l-3,6l-2,5.3l-1.5,5l-1.3,6l-0.8,5.5v10.5l1,7.3
			l1.5,6.3l2,6l2.3,5l2.5,4.8l3.5,5.3l2.3,3l3,3.5l2.3,2.3l0.3,0.8h-6l-3.3-3.8l-3.3-4.5l-3.3-5.3l-2.5-4.8l-2.8-6.8l-1.8-5.8
			l-1.5-6.8L128,120v-10.5l0.8-6.5l1.3-6l1.8-6l2.5-6.3l2-4l2.3-4l3.8-5.5l2.8-3.5l3-3.3l5.3-5.3l3.5-2.8l3-2.3l4.3-2.8l4.5-2.5l4-2
			l6.3-2.5l6.8-2l6-1.3l5.5-0.8L200.3,40.3z"/>
		<path class="st4" d="M163,172.3h10l5,0.8l5,1.5l4.3,2l1.3,0.8l-0.3,1.8l-3.5,7.5l-2,4.5l-0.8,0.5l-2.3-1.5l-4.5-1.8l-2.8-0.5h-8
			l-3.8,1l-3.5,1.8l-2.3,1.8l-2,2l-2,3.3l-1.5,3.8l-1,4.3l-0.8,4l3.5-2.5l3.5-2l3.8-1.3l3-0.5h8.5l3.8,0.8l3.3,1.3l3.8,2l2.5,2
			l2.8,2.8l2.3,3.5l1.3,2.5l1.3,3.8l0.8,5.3v3l-0.5,5l-1.3,4.5l-2,4l-1.8,2.8l-3,3.3l-3.8,2.8l-4.8,2.3l-3.3,1l-2.5,0.5l-2.5,0.3
			h-6.5l-5.3-0.8l-4-1.3l-4-2l-2.8-1.8l-3.3-3l-2.3-2.5l-2.3-3.5l-2-4l-1.8-5.3l-1.3-6l-0.5-4.8v-11l0.8-6.3l1.3-5.3l1.5-4.5l2-4.3
			l2.5-4l2.3-2.8l4.3-4.3l4.3-2.8l3.5-1.8l3.8-1.3l4.5-1L163,172.3z M159.3,217.5l-3,1l-2.8,2l-1.8,2l-1.5,3l-0.5,2.3v4.5l1,3
			l1.5,2.5l1.8,1.8l2.5,1.5l3.3,1h5.3l2.5-0.8l2.8-1.5l1.3-1l1.8-2.5l1-2.5l0.5-3l-0.3-3.8l-1-3.3l-1.5-2.3l-2.3-2.3l-3.3-1.5
			l-1.3-0.3H159.3z"/>
		<path class="st5" d="M220,172.3h8.3l4,0.8l4,1.5l4,2.3l2.8,2.3l3.5,3.5l2.8,4l2.3,4.3l2,5.5l1.3,5.3l0.8,5.8l0.3,3.3v7.8l-0.8,7.3
			l-1.3,5.8l-1.8,5.3l-2,4l-1.8,3l-2.5,3.3l-3,3l-3,2.3l-3.8,2l-4.5,1.5l-2.3,0.5l-2.3,0.3h-6l-4.8-0.8l-3-1l-4-2l-3.3-2.3l-3-2.8
			l-2.8-3.5l-2.3-3.8l-2-4.3l-1.8-5.3l-1.3-6.3l-0.5-5.3v-10.8l0.8-6.3l1.3-5.5l1.5-4.3l3-6.3l2-2.8l2.3-2.8l1.8-1.8l3.3-2.5l3.5-2
			l3.3-1.3L220,172.3z M221.5,188.5l-2.5,1l-2.3,1.5l-2,2l-2,3.5l-1.5,4l-1,5.3L210,208v12.3l0.8,5.3l1,4.3l2,4.3l1.8,2.3l2.3,2
			l3,1.5l1,0.3h4.8l3-1.3l2.3-1.5l2.3-2.5l1.5-2.5l1.5-4.5l0.8-3.5l0.5-4.3v-11.8l-0.8-5.3l-1-4.3l-1.3-3l-2-3l-2.5-2.5l-3.3-1.5
			l-1-0.3H221.5z"/>
		<path class="st5" d="M73,173.3h51.5l0.3,0.3v11.8l-2,2.8l-2.5,3.3l-3.3,4l-3.3,4.3l-5,6.3l-0.3,0.5l4,1l4,1.8l2.8,1.8l2.5,2.3
			l2,2.3l2,3.5l1.3,3l0.8,3.8l0.3,1.5v5.8l-1,5l-1.5,4l-2.3,3.8L121,248l-2.8,2.5l-3.3,2l-3.3,1.5l-5,1.5l-3,0.5l-2.8,0.3h-7.5
			l-4.8-0.5l-5.5-1.3l-5.3-1.8l-4.8-2.3l-3.8-2.5l-0.3-1l4.8-10.3l1.5-3.8l1.3,0.3L81,236l5.3,2.3l5.3,1.3l1.8,0.3h7l4-1l3-1.8
			l2-2.3l1-2.8l0.3-2.8l-0.5-2.8l-1.3-2.5l-1.8-1.8l-2.5-1.3l-3-0.8l-3-0.3l-9.3-0.3l-0.3-0.3v-12.3l2.8-3.5l2-2.5l2.8-3.5l2-2.5
			l3.5-4.5l1.5-2l0.3-0.5H73.3L73,188V173.3z"/>
		<path class="st6" d="M0.3,172.8h14l0.3,0.3v24.3l3.5-1.5l4.3-1h7.5l4.3,1l4.8,2.3l3.5,2.5L44,202l1-0.3l2.8-2.5l4-2.5l3-1.3l3-0.8
			l1.8-0.3h3.3v13.8l-2,0.8l-2.5,0.8l-2.8,1.8l-1.8,1.8l-1.8,3.5l-0.3,1l-0.3,8.5v29l-0.3,0.3l-9.5,0.3h-4l-0.3-0.3l-0.3-36.3
			l-0.5-2.3l-2-4l-2-2.3l-3.3-1.8l-2-0.5H23l-2.8,1l-2,1.5l-1.5,1.8l-1.5,3.3l-0.5,2.5l-0.3,36.8l-0.3,0.3h-14L0,247v-22.8
			L0.3,172.8z"/>
		<path class="st7" d="M44,202.8l1,0.3l0.8,0.8v0.5h0.5l2.5,4l1.8,4l0.8,3.8l0.3,1.8v37.5l-0.3,0.3l-9.5,0.3h-4l-0.3-0.3l-0.3-37
			l0.5-4.5l1.3-4.3l2-3.8l2-2.5h0.5V203L44,202.8z"/>
		<path class="st2" d="M83.8,152.3h11l6.3,0.8l5.8,1.3l5,1.5l5.3,2l5.8,2.8l3.8,2.3l0.8,1H119l-4.8-2.3l-8.3-2.8l-5.5-1.3l-5.8-0.8
			H83.5l-5.8,0.8l-6.5,1.5l-6,2l-6.5,2.8H51l1.3-1.3l3.8-2.3l7-3.3l7.5-2.5l5.5-1.3l4.8-0.8L83.8,152.3z"/>
		<path class="st8" d="M42.8,181h2.8l2.8,1l1.3,1l1.5,2.5l0.3,0.8v3.8l-1.3,2.5l-2,1.8l-2,0.8h-3.5l-2.5-1l-1.8-2l-1-2.5v-3l1-2.5
			l2-2L42.8,181z"/>
		<path class="st9" d="M37.8,214H38v37.5l0.3-8.5l0.5,1l0.3,4l0.5,2.3l0.5,1v0.8h0.5l0.3,1.3l2.3,0.3l0.8,0.8l2.5,0.5l0.3-0.5
			l0.8,0.3V254h1v0.5l2.3,0.3L51,255v-37l0.5-0.3v37.5l-0.3,0.3l-9.5,0.3h-4l-0.3-0.3l-0.3-37L37.8,214z"/>
		<path class="st10" d="M393.8,157.8h0.8l3,5.3l2.8,5.8l2.3,6.3l1.8,6.5v2.3l-0.5-0.5l-0.3-1.8l-1.3-1.3v-0.8l-0.5-1.8l-0.5-0.5
			l-0.5-2.3l-0.3-1.3H400V172h-0.5l-0.5-1.3l-0.3-1.5h-0.5l0.3-0.8l-0.8-0.8v-0.5h-0.5l0.3-0.8l-1.3-1.3l0.3-0.8l-1-1l-0.3-0.8h0.5
			v-0.5h-0.5v-0.8l-1-0.5l0.5-0.3V160h-0.5l-0.5-1.3l0.5-0.8L393.8,157.8z"/>
		<path class="st10" d="M269.8,74.5l1.3,1.3l3,5.3l2.5,5.3L279,93l1.3,4.8l-0.3,1l-0.5-1.3l-1.3-1.3l0.3-0.8l-0.5-1l0.3-0.5h-0.5
			v-0.5l-0.8-0.3l0.3-1l-0.5-0.5l-0.5-1.3l-0.5-1.5l-0.8-1.5l-0.3-1.3l-0.5-0.5l0.3-0.3l-0.5-0.3v-0.5h-0.5l-0.3-1v-0.5l-1-1.5h0.5
			v-0.5h-0.5v-0.5h-0.5l-0.5-1h0.5l-0.5-0.5L271,77l-1-0.8L269.8,74.5z"/>
		<path class="st10" d="M133.5,129.8l0.8,0.8l1.8,6l2.5,6.3l3.3,6.3l1.3,2v0.5h-0.5V151l-0.8-0.3v-0.5L141,150l-0.8-1.5l-1-0.5v-1.5
			l-0.5-0.3l0.3-0.5h-0.8l-0.5-0.8v-0.8h-0.5l-1.5-2.8l0.3-1.3l-0.8-0.3l-0.5-2.3l0.3-0.5h-0.5v-0.8H134v-1.8l-0.5-0.3L133,133v-1.5
			L133.5,129.8z"/>
		<path class="st11" d="M370.3,278.3h30l5.5,0.3v0.3l-3.3,0.3h-32L370.3,278.3z"/>
		<path class="st12" d="M243,277.3h29.5l6.3,0.3v0.3L270,278h-14.8l-1,0.3v-0.5l-4,0.3h-7L243,277.3z"/>
		<path class="st13" d="M281.8,112.8h0.3v8.3l-1,7.3l-0.8,1.8l-0.8-0.5l0.5-2.5l0.3-3v-1.5l0.3-3.3l0.8-3l0.3-1.3L281.8,112.8z"/>
		<path class="st10" d="M453.5,231.3l0.8,0.8l2,5l1,4v2.5h-0.5l-1-2.8l-0.3-0.3V239l-0.5-0.8l-0.3-2.5h-0.5l-0.5-2.3l-0.8-1.8
			L453.5,231.3z"/>
		<path class="st10" d="M140.5,153.3l1.3,0.8v1.5l0.3,0.5l0.8,0.3v0.8l1.3,0.3l-0.5,1.8H143l-3-4.3v-1h0.5V153.3z"/>
		<path class="st14" d="M401.8,192.3l0.5,0.5v10l0.3,1.3l-1.3,0.5v-1.8l0.3-0.8L401.8,192.3z"/>
		<path class="st10" d="M405.3,202.5h0.3v3L405,207h-0.8l-0.3-1.5l0.8-2.8L405.3,202.5z"/>
		<path class="st15" d="M453.5,244.8l0.8,0.8v5.8l-0.8,0.3V244.8z"/>
		<path class="st10" d="M131.8,118.5h0.5l0.3,1.3v3.8l-1-0.5l-0.3-1.3l0.3-0.8L131.8,118.5z"/>
		<path class="st16" d="M132.8,125.8l0.5,0.5l0.5,2v1.3l-1.3-0.3l-0.3-2.8V126L132.8,125.8z"/>
		<path class="st17" d="M279.8,130.5l0.5,0.3l-0.3,2l-0.3,0.8h-0.5V133l-0.5-0.3l0.5-1.8L279.8,130.5z"/>
		<path class="st18" d="M44,202.8l1,0.3l0.8,0.8v0.5h0.5l0.5,1.3l-0.8,0.3l-0.8-1.5l-0.8-0.5v-0.5l-1,0.3V203L44,202.8z"/>
		<path class="st13" d="M277.8,119.3h0.3l0.5,3.8l-1,0.5v-3L277.8,119.3z"/>
		<path class="st10" d="M401.8,202l0.8,1l-0.3,1.3l-1,0.3v-1.8L401.8,202z"/>
		<path class="st11" d="M132,107.5h0.5v1.8l-0.8,1l-0.3-2.3L132,107.5z"/>
	</g>
</g>
</svg>
