<svg xmlns="http://www.w3.org/2000/svg" viewBox="0 0 494 314"><defs><style>.cls-1{fill:#febe27;}.cls-2{fill:#029243;}.cls-3{fill:#0272cc;}.cls-4{fill:#f51d37;}.cls-5{fill:#010001;}.cls-6{fill:#febe28;}.cls-7{fill:#db1f36;}.cls-8{fill:#009241;}.cls-9{fill:#f6253e;}.cls-10{fill:#dd1f36;}.cls-11{fill:#e21f36;}.cls-12{fill:#e51e36;}.cls-13{fill:#df1f36;}.cls-14{fill:#db2036;}.cls-15{fill:#e31f36;}.cls-16{fill:#de1f36;}.cls-17{fill:#e01f36;}.cls-18{fill:#f61d37;}</style></defs><g id="Layer_2" data-name="Layer 2"><g id="Layer_1-2" data-name="Layer 1"><path class="cls-1" d="M205.75,0l8,.25,6,.5L228,2l6.75,1.5,7.75,2.25,6.75,2.5,5.75,2.5L261.5,14l6.75,4L273,21.25l4.25,3.25L280,26.75,282.5,29l2,1.75,6.5,6.5,1.75,2,2.75,3.25,3.75,5,4,6,3,5L310,65.75l3,7,2.25,6.5,1.75,6,6.25-.5,3.25-.25h10.25l8.5.75,6.75,1,7,1.5,6.25,1.75,8,2.75,5.75,2.5,5.25,2.5,4.5,2.5L394,103l4.25,3,3,2.25,4,3.25,2.5,2.25,2,1.75,6.5,6.5,2.25,2.75,2.75,3.25,3,4,4,6,2.5,4.25,3.25,6,3.25,7.25,3,8.5,1.75,6.25,1.5,6.75,1,5.25,7,2.5,7.25,3.5,5,3,4,3L471,197l2.5,2.25,3,3,2.25,2.75,3.25,4.25,3,4.75,2.75,5.25,2.5,6.25,2,6.75L493.5,239l.5,4.25v10L493,261l-1.75,7-2,5.5L487,278.25l-3,5-3,4-3.5,4.25L474,295l-2.5,2-3.5,2.75-5.5,3.5L457.25,306,451,308.5l-4.75,1.5-6.5,1.5-5.25.75-7,.5-210,.5-18.5.25-82.75.5H83l-6-.5-7.25-1-6-1.25-5.25-1.5L53.25,308l-5.75-2.5-4-2-5-2.75-6-4-4.25-3.25-3.5-3-3-2.75L18,284l-2.25-2.75L13,278l-3.25-4.5L6,267.5l-.25-.75h5L13.5,271l2.5,3.5,2.25,2.75L21,280.5l4,4.25,2,1.75,2.75,2.5L34,292.25l4.25,3,5.5,3.25,5.75,3,6.75,2.75,7,2.25L70,308l6.75,1,7,.5h31.5l177.25-1,135.75-.25,6.25-.5,6-1,6-1.5,4.5-1.5,5.75-2.5L461,299l4.5-3,3.25-2.5,2.5-2.25,2-1.75,3-3.25L479.5,282l2.5-4,2.25-4.25L486.5,268l1.5-5.25,1.25-7,.25-2.75v-9.5l-1-7-1.5-6.25L485.25,225l-2.75-6-2.5-4.5-2.75-4L474.5,207l-3.5-3.75-2.5-2.5-2.75-2.25L462.5,196l-4.75-3L452,190l-6.25-2.5-5-1.5-.5-.75-1-6.5-1.5-7-2-7-2.25-6.25-2.5-5.75L428.75,148l-2.5-4.5L423,138.25,420,134l-2.5-3.25-3.25-4-3-3.25-6.5-6.5L402,114.75,398.75,112,394,108.5l-4.25-2.75L386,103.5l-5.5-3-6.5-3L367.5,95l-6.25-2-7-1.75L347,90l-6.5-.75L336,89h-9.75l-7.75.75-4.75.5L313,88l-1.5-5.5L309,75l-2.75-6.5-4-8L300,56.75,295.5,50,293,46.75,290.75,44l-3-3.5-2.75-3-3.25-3.25-2-1.75L276,29.25,271.75,26l-4.25-3-4.75-3-6.25-3.5-6.25-3-6.5-2.5L237,8.75,230,7l-6.75-1.25-6-.75L214,4.75H198.5l-7.25.75L184,6.75l-8,2-8.25,2.75-6,2.5-6.25,3L151,19.5,145.5,23l-4.25,3-3.5,2.75L134.5,31.5l-3,2.75-1.25,1.25h-.5V36l-1,1h-.5v.5h-.5l-.5,1-2.75,2.75-4.5,5.5-3,4-3,4.5L111.75,59l-2.25,4-2,4L105,72.5,102.25,80l-1.75,6L99,92.25l-1.25,7.5-.5,4.25L97,107.75V120.5l.75,7.5.75,5.5-.75.25-3.75-.5L90.5,133h-9l-5.75.5-7.5,1.25-7,1.75-6.5,2.25-6.5,2.75L43,144.25l-5.25,3.25-4.5,3.25-3.5,2.75-3.25,3-3,2.75-1.75,2-2.5,2.5H14l.5-1.25,2.75-3,1.75-2,5.5-5.5,2.75-2.25,3.75-3,5-3.5L41.5,140l6.25-3.25L54.5,134l5.25-1.75,6.75-1.75,9-1.5,6.25-.5H90.5l2.75.25-.5-4.75-.25-3.75v-13l.75-7.75,1-6.25,1.25-6,2-7.25,2.5-7.25,2.75-6.25,4-8,3.5-5.75,3.75-5.5L116.5,44l2.25-2.75L121.5,38l3.5-3.75,4-4,2-1.75,3.75-3.25,4-3,4.25-3,4.75-3,6.25-3.5,7.25-3.5,7-2.75,8-2.5,7.5-1.75L191.25,1,198.5.25Z"/><path class="cls-2" d="M198.25,15.5h13.5l7.25.75,7.5,1.25,8,2,6.75,2.25,6.5,2.75,5.75,2.75,5.25,3,6,4L269,37.5l3.25,2.75,2.5,2.25.75.5v.5l1,.5,3,3,1.75,2,2.25,2.5,3.25,4.25,3.25,4.5,3.75,6.25,3,5.75,2.5,5.75,3,9L304,94.25l1,6.25,2.5-.25,5.75-1L320,98.5l4-.25h8.25l6.5.5,7.5,1,7,1.5L359.5,103l7,2.5,6.75,3,6.25,3.25,6,3.75,4.5,3.25,3.5,2.75,3.25,3,2,1.75,5,5,1.75,2,3.5,4.25,3.25,4.5,3,4.75,3,5.5,3,6.25,2.5,6.75,2,6.75,1.5,7,1,7.25v3l2.5.25,5.75,1.25,8.25,2.75,5.75,2.75L455,199l3.5,2.5,2.75,2.25,2.5,2.25,3.5,3.5,2.25,2.75,2.5,3.5,2.25,3.75,2,3.75,2.5,6.5,1.5,5.75.75,4.75.25,2.75v7l-.5,4.5-1.25,6-2.25,6.75-2.5,5.25-3,5-2.5,3.25-2.25,2.5-1.75,2L462,288.5l-2.75,2.25-3.75,2.75-4.5,2.75-4,2L443,300l-6.75,2.25-5.5,1.25-5.25.75-3.5.25H402.75L100.5,302.75l-17.75-.25L75,301.75l-6.5-1.25-4.75-1.25L58.5,297.5l-6.25-2.75-5.75-3-4-2.5-3.5-2.5L35.5,284l-2.75-2.5-2-1.75L28,277l-1.75-2L23,271l-2.5-3.5-.25-1,5.25.25L28,270l3.25,3.75L36,278.5l2.75,2.25,3.75,3,3.75,2.5L51,289l4,2,5.75,2.5,6.25,2,5.5,1.25,7.25,1,4,.25,17.5.25L404.75,300h17l7.25-.75,6.75-1.5,6-2,6-2.75,4.25-2.5,3.5-2.5,2.5-2,2.5-2.25,3.75-3.75,3-4,2.25-3.5,1.75-3,2-4.5,2-6,1-5,.5-4.75v-5.5l-.75-6-1.25-5.25L473,227.25l-2.25-4.75L468,218l-2.5-3.25-2.75-3.25-3.25-3.25L456.75,206,453,203.25,449.25,201,444,198.25l-5.25-2-6.25-1.75-5.25-1-2.5-.25-.5-.25-.75-8.5-1.25-7.25-1.5-6.25L418,162.75l-2.25-5.25-3-6-3-5-2.75-4-2.5-3.25-3-3.5-2.25-2.5-2.75-3-5-4.5L388,123l-4.5-3.25L379.25,117l-5.75-3.25L367.75,111,360,108l-5.75-1.75-6.25-1.5-7.25-1.25-9-.75H323.5l-8.5.75-7,1.25L302.75,106h-1.5l-.25-.25-.75-6.5L299,92.75l-2-7.5L294.75,79l-2.5-5.75-3-5.75-3.5-5.5-2.5-3.5-2.5-3.25-2.25-2.5-1.75-2-3-3.25-2-1.75-3.25-3L265,40l-4.5-3.25-4.75-3-4.5-2.5-4-2-5-2.25-7-2.5L229,22.75l-7-1.5-7.25-1-3-.25H198.5l-5.75.5-7.5,1.25-6.5,1.5L173.25,25,167,27.25l-7,3.25-5,2.75-4,2.5-5,3.5-4,3.25-2.75,2.25-7,7-1.75,2-2.75,3.5L125,61l-3.25,5-2.25,4-2,3.75-3,7.25L112,88.5l-1.5,6.25-1.25,8L109,105.5v14l.75,6.25,1.25,6.5,1.5,5.75,2.5,7.25,2.25,5,.75,1.5v.5l-1.5-.25-4.75-1.75-4.75-1.5-6.5-1.5-4.75-.75-2.5-.25H80.5l-5.75.75-6.25,1.25-5.25,1.5-5.25,2L53,154l-5,2.75-5.25,3.5-3,2.25L38,163.75H31.75l1.5-1.75L36,159.75l2.5-2,4.25-3L49,151l6.75-3.25,6.75-2.5L69,143.5l7-1.25,4.75-.5h12.5l6.5.75,8.25,1.75,1.75.5L109,142l-1.75-6-1.5-6.75-1-7-.25-2.75V105.25l.75-6.5,1-5.5,1.5-6.5,2.5-7.5,2.75-6.5,2.5-5L118,63.5l2.75-4.25,3-4.25,2.75-3.25L128.75,49l1.75-2h.5l.5-1,3-3,2-1.75L140.25,38l3.25-2.5,5-3.5,5-3,4.5-2.5,5.75-2.75,5.75-2.25,6-2,8-2,7.25-1.25Z"/><path class="cls-3" d="M200.75,28.25h10.5L219,29l6,1,8,2,6.5,2.25L246,37l6.25,3.25,4.75,3,4.25,3,3.5,2.75,3.5,3,6.5,6.5L277,61.25,280,65l4,6,2.5,4.5,2,3.75L291.25,86l2,6,1.5,6.25,1,6,.5,4.25.25,5.75,7.5-2.5,6.75-1.5,6.75-1,6-.5h9l8,.75,6,1,6.25,1.5,5,1.5,4.75,1.75,6.25,2.75,4.75,2.5,5.25,3.25,5,3.5,4.25,3.5,3.75,3.5L396,138.5l2.25,2.75,2.5,3,3.5,5,3,5,3,5.75,2.75,6.75,2,6.25,1.5,6.5,1,6.75.5,6v7.25l-.25.5h5.75l5.25.75,5,1.25,6.25,2.25,5.5,2.75,4.75,3.25L453.5,213l2.5,2.25,2.5,2.75,2.5,3.25,3.25,5.25,2,4.5,1.75,5.25,1,5.25.25,1.75v8.25l-.75,5.25-1.5,5.5-2,5-2.25,4-3,4.25L457.5,278l-1.75,2L453,282.5l-3.25,2.5-4,2.5L441,290l-4.75,1.75-5.25,1.5-3.75.75-4.5.5-5.25.25-41.25-.25-75.5-.5-81.25-.5-118.75-.75L85,292.5l-7.25-.75-7-1.5L62.5,287.5l-7.75-3.75-4.75-3-3.5-2.5-3.25-2.75-2.5-2.25L37,269.5l-1.75-2-.5-1,5.75.25,4,4,5.5,4.5,3.75,2.5L57.5,280l4,2,4,1.75,6,2L76.75,287l5.5.75,3.5.25,15.25.25L380.75,290H422.5l5.75-.75,6.5-1.75,5-2,3.75-2,3.5-2.25,3.5-2.75,3-2.75,2.75-3.25,3-4.25,3-6.25,1.5-5,.75-4,.25-2v-6.75L464,239.5l-1-4.25-2-5L458.75,226l-2.5-3.5L454,219.75l-4-4-4-3-3.75-2.25-4-2-5.25-2-6.25-1.5-3.5-.5-7.75-.25h-2L413,204l.25-1.5.25-4.5v-5.5l-.75-8-1-5.75L410,172l-2.25-6.25-2.25-5-3.25-6.25-3.5-5.25-3-4-3.25-3.75-2.75-3-2-2-2-1.75L382.5,132l-4.5-3.25-5-3.25-5.5-3-4.75-2.25-6-2.25-6.5-2-7-1.5-7.5-1-3-.25h-9.5l-7.5.75L310,115l-7,1.75-8,2.75-2.5,1H292v-8l-.5-6.25-1.25-7.5-1.5-6-2-6L284.25,81,281,74.75,278,70l-3.5-4.75-3-3.5L268,58l-2.5-2.5-2-1.75-4-3.25-4.75-3.25-4.75-3-6.75-3.5-4.75-2-9-3-6.5-1.5-6.25-1-6-.5H201l-7.75.75L185.5,35l-6.25,1.75-5.75,2-6.75,3L162,44.25l-4.75,3-3.5,2.5-3.5,2.75-3.75,3.25-6,6-2.75,3.5-2.5,3.25-2.5,3.75L130,77l-2,3.75-1.75,4-2.25,6L122.5,96l-1.5,7.75-.75,7.25v8.75l.5,5.5,1,6,1.5,6,2.5,7.5,2.75,6,2.5,4.75,3,4.75,2,2.75v.75h-5L129,161l-2.25-3.75-3-5.75-2.5-5.75L119,139l-1.75-7L116,123.75l-.25-4V111l.75-7.75,1-5.75,1.5-6,2-5.75,2.5-6,2.5-5,2.5-4.25,2.5-3.75,3-4L136.25,60,139,57l6.25-6.25L148,48.5l4.25-3.25,3.75-2.5,3.25-2,4.5-2.5,5.75-2.75,7.25-2.75,7-2,7.75-1.5,6-.75Z"/><path class="cls-4" d="M200.25,40.25H210l7.25.75,6.25,1.25,5.5,1.5,5.75,2,6,2.75,3.75,2,4.75,3,3.5,2.5,2.75,2.25,3.5,3,4,4L265.25,68l2.5,3,3.5,5.25L274,81l2.5,5.25L279,93l2,8,1,7.25.25,3.25v5.75l-.5,5.75-1,6.25-1.25,5.25,3-1.75,3.75-2.25,4-2,4.25-2,4.5-1.75,7-2,7.75-1.5,7.25-.75h9.75l7.25.75,5.5,1,6,1.5,6,2,6.25,2.75,5.25,2.75,5.5,3.5,4,3,2.75,2.25,3.25,3,4,4,2.25,2.75,2.75,3.5,3,4.5,3,5.25,2.75,5.75L402.5,175l1.75,6.5,1,5.5.5,5.25v11l-.75,6.5-.25,1,2.75-.75,6-.75h5.75l4.5.5L429,211l3.75,1.25,4.75,2.25,4,2.5,4,3.25,3,3,2.5,3.25,2.5,4,2,4.5,1.25,3.75.75,3.5.25,2.25v7L457,256l-1.25,4-1.25,3-2.25,3.75L450,269.5l-1.75,2h-.5v.5l-3.5,2.75-4.5,2.75L436,279.25,430.75,281l-4.5,1-6.75.75h-19l-31.75-.25-22.25-.25L305,282l-63.25-.5-127-1-21-.25-10-.25-5.5-.75-4.5-1L69,276.75l-4.75-2L59,272l-3-2-4-3v-.25h7.25L63,269l4,2,5,2,5.25,1.5,4.25.75,6,.5,312.75,2.5h19.5l5.75-.75,4.5-1,5-1.75,4.75-2.5,3.5-2.5,3.25-3,2.75-3.75,2-3.75,1.25-4,.75-4v-6.5l-1-5-1.25-4-2-4L446.5,228l-3-3.25-2.25-2.25-3.5-2.5-3.5-2-4.5-2-5.25-1.5-5.5-.75h-5.75l-5.25.75-5.25,1.5-3.5,1.5h-.5l.5-2.5,1.5-7.75.5-4.5V192.5l-.75-6.25-1.25-6-1.5-5.25L395,168l-3-5.75-3-4.75-2.25-3-2.25-2.75-2.25-2.5-1.75-2-1.75-1.75L376,143.25l-2.25-2-4.5-3.25L366,136l-4-2.25-6.25-3-6.25-2.25L344,127l-4.75-1-5.5-.75L330.5,125H321l-5.25.5-7,1.25-6.5,1.75-5.5,2-6,2.75-4.5,2.5-2.75,1.75-3.25,2.25-3.25,2.5L274,145l-2,1.75-3.75,4-1,1.5-.75.25.5-1.25,2.75-4.75,2.75-5.75,1.75-4.75,1.75-6.25,1-5.25.5-4,.25-3.75V112l-.5-5.75-1-5.75-1.5-5.75-1.5-4.5L270.5,84,268,79.5,265,75l-2.5-3.25-3-3.5L254.25,63l-2.75-2.25-4-3-4.75-3L236,51.25l-7-2.75-6.25-1.75-6-1.25L213,45l-3.25-.25H199.5l-7.75,1L185,47.25l-7.5,2.5-6,2.75-4.25,2.25-4,2.5-5.25,4-5,4.5-2.5,2.5-1.75,2L146,73.75,143.75,77,141,81.5l-3,6-2,5.25-1.5,5-1.25,6-.75,5.5v10.5l1,7.25,1.5,6.25,2,6,2.25,5,2.5,4.75,3.5,5.25,2.25,3,3,3.5,2.25,2.25.25.75h-6L143.75,160l-3.25-4.5-3.25-5.25-2.5-4.75L132,138.75,130.25,133l-1.5-6.75L128,120V109.5l.75-6.5L130,97l1.75-6,2.5-6.25,2-4,2.25-4,3.75-5.5,2.75-3.5,3-3.25,5.25-5.25,3.5-2.75,3-2.25L164,51.5l4.5-2.5,4-2,6.25-2.5,6.75-2,6-1.25,5.5-.75Z"/><path class="cls-5" d="M163,172.25h10l5,.75,5,1.5,4.25,2,1.25.75-.25,1.75-3.5,7.5-2,4.5-.75.5-2.25-1.5-4.5-1.75-2.75-.5h-8l-3.75,1-3.5,1.75L155,192.25l-2,2-2,3.25-1.5,3.75-1,4.25-.75,4,3.5-2.5,3.5-2,3.75-1.25,3-.5H170l3.75.75,3.25,1.25,3.75,2,2.5,2L186,212l2.25,3.5,1.25,2.5,1.25,3.75.75,5.25v3l-.5,5-1.25,4.5-2,4L186,246.25l-3,3.25-3.75,2.75-4.75,2.25-3.25,1-2.5.5-2.5.25h-6.5l-5.25-.75-4-1.25-4-2-2.75-1.75-3.25-3-2.25-2.5L136,241.5l-2-4-1.75-5.25-1.25-6-.5-4.75v-11l.75-6.25L132.5,199l1.5-4.5,2-4.25,2.5-4,2.25-2.75,4.25-4.25,4.25-2.75,3.5-1.75,3.75-1.25,4.5-1Zm-3.75,45.25-3,1-2.75,2-1.75,2-1.5,3-.5,2.25v4.5l1,3,1.5,2.5L154,239.5l2.5,1.5,3.25,1H165l2.5-.75,2.75-1.5,1.25-1,1.75-2.5,1-2.5.5-3L174.5,227l-1-3.25L172,221.5l-2.25-2.25-3.25-1.5-1.25-.25Z"/><path class="cls-5" d="M220,172.25h8.25l4,.75,4,1.5,4,2.25L243,179l3.5,3.5,2.75,4,2.25,4.25,2,5.5,1.25,5.25.75,5.75.25,3.25v7.75L255,225.5l-1.25,5.75L252,236.5l-2,4-1.75,3-2.5,3.25-3,3-3,2.25L236,254l-4.5,1.5-2.25.5-2.25.25h-6l-4.75-.75-3-1-4-2L206,250.25l-3-2.75-2.75-3.5L198,240.25,196,236l-1.75-5.25L193,224.5l-.5-5.25V208.5l.75-6.25,1.25-5.5,1.5-4.25,3-6.25,2-2.75,2.25-2.75L205,179l3.25-2.5,3.5-2,3.25-1.25Zm1.5,16.25-2.5,1-2.25,1.5-2,2-2,3.5-1.5,4-1,5.25L210,208v12.25l.75,5.25,1,4.25,2,4.25,1.75,2.25,2.25,2,3,1.5,1,.25h4.75l3-1.25,2.25-1.5,2.25-2.5,1.5-2.5,1.5-4.5.75-3.5.5-4.25V208.25L237.5,203l-1-4.25-1.25-3-2-3-2.5-2.5-3.25-1.5-1-.25Z"/><path class="cls-5" d="M73,173.25h51.5l.25.25v11.75l-2,2.75-2.5,3.25-3.25,4-3.25,4.25-5,6.25-.25.5,4,1,4,1.75,2.75,1.75,2.5,2.25,2,2.25,2,3.5,1.25,3,.75,3.75L128,227v5.75l-1,5-1.5,4-2.25,3.75L121,248l-2.75,2.5-3.25,2-3.25,1.5-5,1.5-3,.5-2.75.25H93.5l-4.75-.5-5.5-1.25L78,252.75l-4.75-2.25L69.5,248l-.25-1L74,236.75,75.5,233l1.25.25L81,236l5.25,2.25,5.25,1.25,1.75.25h7l4-1,3-1.75,2-2.25,1-2.75.25-2.75-.5-2.75-1.25-2.5L107,222.25,104.5,221l-3-.75-3-.25-9.25-.25L89,219.5V207.25l2.75-3.5,2-2.5,2.75-3.5,2-2.5,3.5-4.5,1.5-2,.25-.5H73.25L73,188Z"/><path class="cls-6" d="M.25,172.75h14l.25.25v24.25l3.5-1.5,4.25-1h7.5l4.25,1L38.75,198l3.5,2.5L44,202l1-.25,2.75-2.5,4-2.5,3-1.25,3-.75,1.75-.25h3.25v13.75l-2,.75-2.5.75L55.5,211.5l-1.75,1.75L52,216.75l-.25,1-.25,8.5v29l-.25.25-9.5.25h-4l-.25-.25-.25-36.25-.5-2.25-2-4-2-2.25L29.5,209l-2-.5H23l-2.75,1-2,1.5-1.5,1.75L15.25,216l-.5,2.5-.25,36.75-.25.25H.25L0,247V224.25Z"/><path class="cls-7" d="M44,202.75l1,.25.75.75v.5h.5l2.5,4,1.75,4,.75,3.75.25,1.75v37.5l-.25.25-9.5.25h-4l-.25-.25-.25-37,.5-4.5L39,209.75,41,206l2-2.5h.5V203Z"/><path class="cls-3" d="M83.75,152.25h11L101,153l5.75,1.25,5,1.5,5.25,2,5.75,2.75,3.75,2.25.75,1H119l-4.75-2.25L106,158.75l-5.5-1.25-5.75-.75H83.5l-5.75.75-6.5,1.5-6,2-6.5,2.75H51l1.25-1.25L56,160.25,63,157l7.5-2.5,5.5-1.25,4.75-.75Z"/><path class="cls-8" d="M42.75,181H45.5l2.75,1,1.25,1,1.5,2.5.25.75V190L50,192.5l-2,1.75L46,195H42.5L40,194l-1.75-2-1-2.5v-3l1-2.5,2-2Z"/><path class="cls-9" d="M37.75,214H38v37.5l.25-8.5.5,1,.25,4,.5,2.25.5,1V252h.5l.25,1.25,2.25.25.75.75,2.5.5.25-.5.75.25V254h1v.5l2.25.25.5.25V218l.5-.25v37.5l-.25.25-9.5.25h-4l-.25-.25-.25-37Z"/><path class="cls-10" d="M393.75,157.75h.75l3,5.25,2.75,5.75L402.5,175l1.75,6.5v2.25l-.5-.5-.25-1.75-1.25-1.25v-.75l-.5-1.75-.5-.5-.5-2.25-.25-1.25H400V172h-.5l-.5-1.25-.25-1.5h-.5l.25-.75-.75-.75v-.5h-.5l.25-.75-1.25-1.25.25-.75-1-1-.25-.75h.5v-.5h-.5v-.75l-1-.5.5-.25V160h-.5l-.5-1.25.5-.75Z"/><path class="cls-10" d="M269.75,74.5,271,75.75,274,81l2.5,5.25L279,93l1.25,4.75-.25,1-.5-1.25-1.25-1.25.25-.75-.5-1,.25-.5h-.5v-.5l-.75-.25.25-1-.5-.5-.5-1.25-.5-1.5L275,87.5l-.25-1.25-.5-.5.25-.25-.5-.25v-.5h-.5l-.25-1v-.5l-1-1.5h.5v-.5h-.5v-.5h-.5l-.5-1h.5l-.5-.5L271,77l-1-.75Z"/><path class="cls-10" d="M133.5,129.75l.75.75,1.75,6,2.5,6.25,3.25,6.25,1.25,2v.5h-.5V151l-.75-.25v-.5L141,150l-.75-1.5-1-.5v-1.5l-.5-.25.25-.5h-.75l-.5-.75v-.75h-.5l-1.5-2.75.25-1.25-.75-.25-.5-2.25.25-.5h-.5v-.75H134v-1.75l-.5-.25L133,133v-1.5Z"/><path class="cls-11" d="M370.25,278.25h30l5.5.25v.25l-3.25.25h-32Z"/><path class="cls-12" d="M243,277.25h29.5l6.25.25v.25L270,278H255.25l-1,.25v-.5l-4,.25h-7Z"/><path class="cls-13" d="M281.75,112.75H282V121l-1,7.25-.75,1.75-.75-.5.5-2.5.25-3v-1.5l.25-3.25.75-3,.25-1.25Z"/><path class="cls-10" d="M453.5,231.25l.75.75,2,5,1,4v2.5h-.5l-1-2.75-.25-.25V239l-.5-.75-.25-2.5h-.5l-.5-2.25-.75-1.75Z"/><path class="cls-10" d="M140.5,153.25l1.25.75v1.5l.25.5.75.25V157l1.25.25-.5,1.75H143l-3-4.25v-1h.5Z"/><path class="cls-14" d="M401.75,192.25l.5.5v10l.25,1.25-1.25.5v-1.75l.25-.75Z"/><path class="cls-10" d="M405.25,202.5h.25v3L405,207h-.75l-.25-1.5.75-2.75Z"/><path class="cls-15" d="M453.5,244.75l.75.75v5.75l-.75.25Z"/><path class="cls-10" d="M131.75,118.5h.5l.25,1.25v3.75l-1-.5-.25-1.25.25-.75Z"/><path class="cls-16" d="M132.75,125.75l.5.5.5,2v1.25l-1.25-.25-.25-2.75V126Z"/><path class="cls-17" d="M279.75,130.5l.5.25-.25,2-.25.75h-.5V133l-.5-.25.5-1.75Z"/><path class="cls-18" d="M44,202.75l1,.25.75.75v.5h.5l.5,1.25-.75.25-.75-1.5-.75-.5v-.5l-1,.25V203Z"/><path class="cls-13" d="M277.75,119.25H278l.5,3.75-1,.5v-3Z"/><path class="cls-10" d="M401.75,202l.75,1-.25,1.25-1,.25v-1.75Z"/><path class="cls-11" d="M132,107.5h.5v1.75l-.75,1L131.5,108Z"/></g></g></svg>